<svg xmlns="http://www.w3.org/2000/svg" fill="none" viewBox="0 0 24 24" stroke-width="1.5" stroke="currentColor" class="w-6 h-6">
  <path stroke-linecap="round" stroke-linejoin="round" d="M9.53 16.122a3 3 0 00-5.78 1.128 2.25 2.25 0 01-2.47 2.118H3.75c-.495 0-.943-.204-1.243-.543A3.75 3.75 0 01.75 15.122V7.5c0-1.01.84-1.833 1.864-1.833h16.272c1.024 0 1.864.823 1.864 1.833v7.622a3.75 3.75 0 01-2.25 3.456l-2.47 1.118a2.25 2.25 0 01-2.47-2.118 3 3 0 00-5.78-1.128zM15.75 5.25v2.25m-10.5-2.25v2.25m10.5 0l-1.5-1.5m-7.5 1.5l1.5-1.5m7.5 0l-1.5 1.5m-4.5-1.5l1.5 1.5" />
</svg>
