<svg xmlns="http://www.w3.org/2000/svg" fill="none" viewBox="0 0 24 24" stroke-width="1.5" stroke="currentColor" class="w-6 h-6">
  <path stroke-linecap="round" stroke-linejoin="round" d="M3.75 3v11.25A2.25 2.25 0 006 16.5h12A2.25 2.25 0 0020.25 14.25V3m-15 0h1.5M5.625 3h12.75M5.625 3V1.5a1.125 1.125 0 011.125-1.125h9.75A1.125 1.125 0 0118.75 1.5V3m-15 0h15M3.75 6h.008v.008H3.75V6zM6.75 6h.008v.008H6.75V6zM9.75 6h.008v.008H9.75V6zM3.75 9h.008v.008H3.75V9zm3 0h.008v.008H6.75V9zm3 0h.008v.008H9.75V9z" />
</svg>

